<?xml version="1.0" encoding="UTF-8"?>
<svg id="Layer_1" xmlns="http://www.w3.org/2000/svg" version="1.1" viewBox="0 0 410 400">
  <!-- Generator: Adobe Illustrator 29.7.1, SVG Export Plug-In . SVG Version: 2.1.1 Build 8)  -->
  <defs>
    <style>
      .st0 {
        fill: #fff;
      }

      .st1 {
        fill: #0568d5;
      }
    </style>
  </defs>
  <path class="st1" d="M404.7,197.1c-.8-26-2.9-51.7-6.7-77.5-3.3-24.2-5.4-50.6-20.2-71.5-15.4-21.9-41.6-33.3-68.5-38.5-25.8-4.8-57.5-7.1-88.1-8.5C165.7-1.4,109.7-1.6,58.6,21.5,21.6,38.2,13.7,74.2,10.1,108.8c-7.1,71.2-6.2,142.1-1,213.5,1.5,20.6,9.8,39.2,26.4,53.1,18.5,15.4,49.8,16.3,73.7,19.4,57.1,7.3,115.2,6.7,172.2-.6,42.1-5.4,99.3-10.4,116-53.7,7.5-19.8,6-44.6,6.7-65.6.6-26,1.2-51.9.6-77.9Z"/>
  <g>
    <path class="st0" d="M171.7,183.5v-33.9c0-3.5-.2-7-.1-10.6.3-15.3,12.9-26.2,29.6-25.4v35c0,11.5-.1,76.7-.1,81.9,0,27.7-18.6,49.5-46.7,54.9-34.3,6.6-68.1-21.8-66-55.6,2.5-39.5,42.2-63.1,79.8-47.5,1,.3,2.1.7,3.4,1.2h0ZM117.6,231.6c0,14.7,11.8,26.3,26.8,26.4,15.2.1,27.6-11.7,27.7-26.2,0-14.7-12.2-26.4-27.5-26.3-15.2,0-27,11.4-27,26.1h0Z"/>
    <path class="st0" d="M321.5,227.9c-.4-25.7-23.5-48.7-50.1-50.8-11.4-.9-22.3.9-33.1,6.2v-33.7c0-3.5.2-7,.1-10.6-.3-15.3-12.9-26.2-29.6-25.4v35c0,6.5,0,30.1,0,50.3,0,20.3,0,43.9,0,50.3v35c16.7.8,29.3-10.2,29.6-25.4.1-3.5-.1-7-.1-10.6v-23.1c.4-3.3,1.4-6.4,3.5-9.4,6.9-9.6,19-14,30.7-10.8,11.8,3.2,20,13.3,20.1,25.1.2,10.4,0,20.8.1,31.2.1,14.2,13.8,25,28.9,22.6,0-18.6.3-37.4-.1-56.1h0Z"/>
  </g>
</svg>