<svg width="215" height="31" viewBox="0 0 215 31" fill="none" xmlns="http://www.w3.org/2000/svg">
<path d="M10.6019 1.55078C13.5851 1.55078 16.1917 2.14922 18.4225 3.34609C20.653 4.54278 22.3728 6.22922 23.5822 8.40522C24.8185 10.5541 25.4366 13.0428 25.4366 15.8717C25.4366 18.6732 24.8185 21.1621 23.5822 23.3381C22.3728 25.5141 20.6396 27.2005 18.3821 28.3972C16.1515 29.5941 13.5581 30.1925 10.6019 30.1925H0V1.55078H10.6019ZM10.1586 24.1541C12.7653 24.1541 14.7944 23.4332 16.2455 21.9917C17.6968 20.5501 18.4225 18.5101 18.4225 15.8717C18.4225 13.2332 17.6968 11.1797 16.2455 9.71078C14.7944 8.2421 12.7653 7.50766 10.1586 7.50766H6.89332V24.1541H10.1586Z" fill="#1E2C46"/>
<path d="M27.918 18.7685C27.918 16.4292 28.3481 14.3756 29.2081 12.6076C30.0949 10.8396 31.2908 9.47961 32.7957 8.52761C34.3006 7.57561 35.9802 7.09961 37.8346 7.09961C39.4203 7.09961 40.8042 7.42605 41.9868 8.07874C43.1961 8.73161 44.1233 9.58849 44.7682 10.6492V7.42605H51.6615V30.1925H44.7682V26.9692C44.0963 28.0301 43.1557 28.8867 41.9464 29.5396C40.764 30.1925 39.3799 30.5187 37.7943 30.5187C35.9668 30.5187 34.3006 30.0427 32.7957 29.0907C31.2908 28.1116 30.0949 26.738 29.2081 24.97C28.3481 23.1747 27.918 21.1076 27.918 18.7685ZM44.7682 18.8092C44.7682 17.0685 44.2845 15.6947 43.3171 14.6885C42.3765 13.682 41.2207 13.1787 39.8502 13.1787C38.4797 13.1787 37.3106 13.682 36.3432 14.6885C35.4026 15.6676 34.9323 17.0276 34.9323 18.7685C34.9323 20.5092 35.4026 21.8965 36.3432 22.93C37.3106 23.9365 38.4797 24.4396 39.8502 24.4396C41.2207 24.4396 42.3765 23.9365 43.3171 22.93C44.2845 21.9236 44.7682 20.55 44.7682 18.8092Z" fill="#1E2C46"/>
<path d="M69.1852 24.2763V30.1923H65.6781C63.1789 30.1923 61.2305 29.5803 59.833 28.3563C58.4355 27.105 57.7368 25.0785 57.7368 22.277V13.2194H54.9956V7.42583H57.7368V1.87695H64.63V7.42583H69.145V13.2194H64.63V22.3585C64.63 23.0385 64.7913 23.5283 65.1138 23.8274C65.4362 24.1265 65.9737 24.2763 66.7263 24.2763H69.1852Z" fill="#1E2C46"/>
<path d="M71.6543 18.7685C71.6543 16.4292 72.0842 14.3756 72.9442 12.6076C73.831 10.8396 75.027 9.47961 76.532 8.52761C78.0369 7.57561 79.7166 7.09961 81.571 7.09961C83.1564 7.09961 84.5405 7.42605 85.7229 8.07874C86.9322 8.73161 87.8594 9.58849 88.5045 10.6492V7.42605H95.3976V30.1925H88.5045V26.9692C87.8326 28.0301 86.892 28.8867 85.6827 29.5396C84.5002 30.1925 83.1162 30.5187 81.5306 30.5187C79.7032 30.5187 78.0369 30.0427 76.532 29.0907C75.027 28.1116 73.831 26.738 72.9442 24.97C72.0842 23.1747 71.6543 21.1076 71.6543 18.7685ZM88.5045 18.8092C88.5045 17.0685 88.0208 15.6947 87.0532 14.6885C86.1126 13.682 84.9571 13.1787 83.5865 13.1787C82.2158 13.1787 81.0469 13.682 80.0793 14.6885C79.1387 15.6676 78.6684 17.0276 78.6684 18.7685C78.6684 20.5092 79.1387 21.8965 80.0793 22.93C81.0469 23.9365 82.2158 24.4396 83.5865 24.4396C84.9571 24.4396 86.1126 23.9365 87.0532 22.93C88.0208 21.9236 88.5045 20.55 88.5045 18.8092Z" fill="#1E2C46"/>
<path d="M124.894 1.55078V30.1925H118V18.4012H107.278V30.1925H100.385V1.55078H107.278V12.7708H118V1.55078H124.894Z" fill="#1E2C46"/>
<path d="M128.5 18.7685C128.5 16.4292 128.93 14.3756 129.79 12.6076C130.676 10.8396 131.873 9.47961 133.378 8.52761C134.882 7.57561 136.563 7.09961 138.416 7.09961C140.002 7.09961 141.387 7.42605 142.569 8.07874C143.778 8.73161 144.705 9.58849 145.351 10.6492V7.42605H152.243V30.1925H145.351V26.9692C144.679 28.0301 143.737 28.8867 142.528 29.5396C141.346 30.1925 139.961 30.5187 138.375 30.5187C136.548 30.5187 134.882 30.0427 133.378 29.0907C131.873 28.1116 130.676 26.738 129.79 24.97C128.93 23.1747 128.5 21.1076 128.5 18.7685ZM145.351 18.8092C145.351 17.0685 144.867 15.6947 143.899 14.6885C142.957 13.682 141.802 13.1787 140.432 13.1787C139.062 13.1787 137.892 13.682 136.926 14.6885C135.984 15.6676 135.515 17.0276 135.515 18.7685C135.515 20.5092 135.984 21.8965 136.926 22.93C137.892 23.9365 139.062 24.4396 140.432 24.4396C141.802 24.4396 142.957 23.9365 143.899 22.93C144.867 21.9236 145.351 20.55 145.351 18.8092Z" fill="#1E2C46"/>
<path d="M189.52 7.42578L183.432 30.1922H175.813L172.265 15.4225L168.597 30.1922H161.019L154.892 7.42578H161.786L164.97 23.7049L168.759 7.42578H176.055L179.885 23.6233L183.028 7.42578H189.52Z" fill="#1E2C46"/>
<path d="M205.894 30.1921L199.041 20.6448V30.1921H192.148V0H199.041V16.6872L205.855 7.42564H214.36L205.008 18.8496L214.44 30.1921H205.894Z" fill="#1E2C46"/>
</svg>
