<svg width="199" height="183" viewBox="0 0 199 183" fill="none" xmlns="http://www.w3.org/2000/svg">
<path d="M84.4902 74.03C84.4902 61.7877 84.4902 49.9712 84.4902 38.1548C84.4902 34.4289 84.279 30.703 84.3846 26.977C84.7015 10.7959 97.4825 -0.807644 114.383 0.0439937C114.383 12.3927 114.383 24.7415 114.383 37.0902C114.383 49.2261 114.383 61.4684 114.383 74.3494C125.368 68.7073 136.459 66.7911 148.079 67.7492C175.014 69.9847 198.358 94.2564 198.78 121.509C199.203 141.309 198.886 161.216 198.886 180.911C183.57 183.465 169.732 171.968 169.627 156.958C169.521 145.993 169.732 134.922 169.521 123.957C169.416 111.396 161.071 100.75 149.135 97.3436C137.304 93.9371 125.052 98.6211 118.08 108.734C114.911 113.418 114.277 118.315 114.277 123.851C114.277 153.232 95.4756 176.227 66.9559 181.975C32.2041 189.001 -2.01955 158.874 0.093017 123.106C2.6281 81.2689 42.8726 56.2521 81.0045 72.7526C82.0608 73.0719 83.117 73.4977 84.4902 74.03ZM29.669 125.022C29.669 140.564 41.605 152.913 56.8155 153.019C72.2373 153.126 84.8071 140.671 84.9127 125.235C84.9127 109.692 72.5542 97.2371 57.0268 97.3436C41.605 97.3436 29.669 109.373 29.669 125.022Z" fill="#2B90FF"/>
</svg>
