<?xml version="1.0" encoding="utf-8"?>
<!-- Generator: Adobe Illustrator 26.1.0, SVG Export Plug-In . SVG Version: 6.00 Build 0)  -->
<svg version="1.1" id="Layer_1" xmlns="http://www.w3.org/2000/svg" xmlns:xlink="http://www.w3.org/1999/xlink" x="0px" y="0px"
	 viewBox="0 0 199 183" style="enable-background:new 0 0 199 183;" xml:space="preserve">
<style type="text/css">
	.st0{fill:#2B90FF;}
</style>
<path class="st0" d="M87.8,77.9c0-9.5,0-18.7,0-27.9c0-2.9-0.2-5.8-0.1-8.7c0.2-12.6,10.2-21.6,23.4-21c0,9.6,0,19.2,0,28.8
	c0,9.4,0,19,0,29c8.6-4.4,17.2-5.9,26.2-5.1c21,1.7,39.2,20.6,39.5,41.9c0.3,15.4,0.1,30.9,0.1,46.3c-11.9,2-22.7-7-22.8-18.7
	c-0.1-8.5,0.1-17.2-0.1-25.7c-0.1-9.8-6.6-18.1-15.9-20.7c-9.2-2.7-18.8,1-24.2,8.9c-2.5,3.6-3,7.5-3,11.8
	c0,22.9-14.6,40.8-36.8,45.3c-27.1,5.5-53.7-18-52.1-45.8c2-32.6,33.3-52.1,63-39.2C85.9,77.2,86.7,77.5,87.8,77.9z M45.1,117.6
	c0,12.1,9.3,21.7,21.1,21.8c12,0.1,21.8-9.6,21.9-21.6c0-12.1-9.6-21.8-21.7-21.7C54.4,96.1,45.1,105.4,45.1,117.6z"/>
</svg>
